<?xml version="1.0" encoding="UTF-8"?>
<svg id="Layer_1" xmlns="http://www.w3.org/2000/svg" version="1.1" viewBox="0 0 800 800">
  <!-- Generator: Adobe Illustrator 29.6.1, SVG Export Plug-In . SVG Version: 2.1.1 Build 9)  -->
  <path d="M0,544.2v-277.8h158.3c2.3,0,25.9,11.3,30.3,14.1,44.3,28.7,42.5,86.3.3,116.4,37.2,26.1,53,44.5,43,93.2-4.5,21.9-42.4,54-62.6,54H0ZM159.8,323.3c-16.1-15.6-81.5-11.9-104.3-12.4v72.3c27.6-2,79,6.1,101.8-10.8,11.9-8.8,12.2-39.7,2.5-49.1ZM152.8,427.6c-28-4.9-67.7,3.6-97.2,0v72.2h86.1c46.8,0,58.7-63.9,11.1-72.2Z"/>
  <polygon points="744.4 444.2 744.4 266.4 800 266.4 800 544.2 750 541.4 605.6 355.3 605.6 544.2 555.6 544.2 555.6 266.4 605.5 269.2 744.4 444.2"/>
  <path d="M522.2,377.6c1.6,17.5-14.7,16.8-27.5,16.9-.9,18.9,1.1,37.7-1.7,56.7-2.2,14.7-19.4,48.8-19.2,51.5,1.3,15.4,41.8,46.3,61.7,36l3.5,13.9c-35.1,20.7-71.6,11.9-97.3-18.5-122.1,87.7-281.7-44.7-130.7-148.1-10.6-10.7-22.9-24.3-28-38.6-49.2-140.4,181.2-146.2,146.5-26.2-10.5,36.2-40.1,39.3-57.2,64.5,26.3,24.5,47.5,58.3,72.1,83.6,5.3,5.4,7.3,10.5,16.5,8.4l4.9-74.3c-4.9-14.1-35.2-3.6-32.6-25.7h88.9ZM329.1,267.8c-22.8,22.7,8.6,125.8,45.5,76,31.3-42.3,12-104.6-45.5-76ZM333.2,405.3c-32.9,20-40.6,65.4-23.2,98.3,26.2,49.6,110.1,29.1,104.5,6.9-6.1-24-73.4-76-81.3-105.3Z"/>
</svg>