<?xml version="1.0" encoding="UTF-8" standalone="no"?>
<!DOCTYPE svg PUBLIC "-//W3C//DTD SVG 1.1//EN" "http://www.w3.org/Graphics/SVG/1.1/DTD/svg11.dtd">
<svg width="100%" height="100%" viewBox="0 0 800 800" version="1.1" xmlns="http://www.w3.org/2000/svg" xmlns:xlink="http://www.w3.org/1999/xlink" xml:space="preserve" xmlns:serif="http://www.serif.com/" style="fill-rule:evenodd;clip-rule:evenodd;stroke-linejoin:round;stroke-miterlimit:2;">
    <g transform="matrix(1.215513,0,0,1.215513,-94.377846,-86.541139)">
        <g transform="matrix(0.949219,0,0,0.949219,-86,-86)">
            <path d="M384.929,513.512C385.269,506.818 385.341,490.686 389.82,467.565C397.409,428.392 419.17,412.742 440.507,416.45C460.12,419.857 463.615,432.912 465.564,430.559C465.771,430.309 465.554,335.507 465.655,332.509C465.765,329.234 473.162,330.283 474.5,330.285C511.178,330.337 511.305,329.87 512.282,330.732C512.971,331.34 512.896,331.557 512.896,545.5C512.896,632.124 513.092,633.004 511.465,633.338C509.996,633.64 473.779,633.428 470.502,633.408C466.678,633.386 467.496,628.62 467.591,621.5C467.774,607.735 462.624,630.369 441.543,635.663C380.77,650.927 384.542,541.423 384.929,513.512ZM437.921,465.573C436.864,473.177 433.235,499.297 435.477,561.5C436.309,584.6 437.365,606.205 457.397,600.158C467.762,597.029 465.638,590.921 465.638,573.5C465.638,456.598 465.787,456.371 464.484,454.514C462.184,451.236 456.182,448.781 450.494,449.44C440.572,450.589 439.413,459.312 437.921,465.573Z"/>
        </g>
        <g transform="matrix(0.949219,0,0,0.949219,-86,-86)">
            <path d="M651.475,696.923C645.311,696.348 624.043,695.636 605.869,682.026C591.166,671.015 591.072,657.928 591.055,655.498C590.816,621.993 634.637,618.214 625.663,615.241C622.759,614.278 600.541,606.916 599.315,587.523C597.759,562.91 611.677,552.197 624.571,543.567C628.719,540.792 609.271,537.393 602.918,504.425C589.366,434.1 649.285,397.12 690.774,425.081C693.593,426.981 693.243,424.664 694.937,421.728C705.14,404.036 721.94,395.668 732.482,394.302C735.678,393.888 734.82,396.119 734.796,434.511C734.793,440.508 723.869,430.408 710.456,437.411C704.187,440.684 707.672,442.387 709.204,444.695C733.614,481.473 715.07,541.398 675.413,551.157C649.642,557.498 643.091,547.123 639.604,554.554C629.307,576.493 669.041,572.567 704.299,587.971C745.778,606.092 740.724,662.231 714.161,682.076C691.094,699.309 662.789,697.318 651.475,696.923ZM677.076,496.467C677.33,491.166 679.419,463.876 671.033,451.837C667.18,446.306 658.444,444.413 651.912,449.932C641.665,458.589 637.213,518.835 658.502,522.484C675.946,525.475 676.987,497.297 677.076,496.467ZM694.965,647.614C694.995,647.348 697.781,639.411 689.273,633.836C678.101,626.516 660.721,624.388 658.539,624.745C634.684,628.654 622.627,647.43 634.851,658.098C641.55,663.944 687.052,672.328 694.965,647.614Z"/>
        </g>
        <g transform="matrix(0.949219,0,0,0.949219,-86,-86)">
            <path d="M860.136,473.587C871.215,524.196 873.405,647.161 790.562,636.082C723.211,627.074 728.272,492.275 748.782,450.636C751.154,445.82 767.671,412.288 806.507,416.42C847.66,420.798 856.712,461.613 860.136,473.587ZM785.956,506.504C784.707,598.927 792.129,600.121 798.455,600.796C811.967,602.237 816.058,593.872 815.02,505.515C814.386,451.483 806.166,452.098 800.503,452.087C789.461,452.065 786.792,464.652 785.956,506.504Z"/>
        </g>
        <g transform="matrix(0.949219,0,0,0.949219,-86,-86)">
            <path d="M305.505,457.057C304.113,457.133 294.392,457.669 289.846,464.702C288.341,467.031 289.776,630.214 289.078,632.345C288.729,633.412 281.192,633.413 280.5,633.413C243.781,633.419 242.604,633.807 242.283,631.529C241.966,629.282 242.244,439.225 242.268,422.503C242.269,422.206 242.273,419.588 244.503,419.541C244.946,419.531 287.205,419.511 287.495,419.548C290.568,419.946 288.849,432.572 289.19,438.636C289.375,441.93 294.412,434.957 302.86,427.948C319.419,414.211 358.065,403.523 365.027,448.559C365.086,448.945 365.877,448.942 365.801,630.502C365.8,633.261 365.196,633.414 362.5,633.416C319.646,633.447 319.648,633.223 319.626,633.213C318.476,632.729 318.613,632.214 318.613,537.5C318.613,465.202 320.492,458.633 305.505,457.057Z"/>
        </g>
        <g transform="matrix(0.949219,0,0,0.949219,-86,-86)">
            <path d="M220.032,562.498C219.848,563.494 220.604,565.236 217.497,565.251C177.078,565.446 176.96,566.274 173.654,565.101C172.452,564.675 172.586,564.102 172.586,419.5C172.586,331.686 172.457,331.325 173.53,330.56C174.011,330.218 174.064,330.282 211.5,330.287C212.171,330.287 219.452,330.288 219.819,331.361C220.195,332.46 219.779,536.792 220.032,562.498Z"/>
        </g>
        <g transform="matrix(0.949219,0,0,0.949219,-86,-86)">
            <path d="M584.051,422.499C583.733,468.955 584.361,631.32 583.729,632.641C583.134,633.885 538.066,633.974 537.385,632.577C536.554,630.872 537.286,505.151 536.968,427.501C536.967,427.15 535.812,419.586 539.502,419.537C543.003,419.492 581.909,418.984 583.27,419.839C584.241,420.449 583.784,420.659 584.051,422.499Z"/>
        </g>
        <g transform="matrix(0.949219,0,0,0.949219,-86,-86)">
            <path d="M220.033,587.499C220.026,632.221 220.189,633.094 218.479,633.373C217.977,633.455 174.74,633.418 174.51,633.392C172.239,633.142 172.578,631.948 172.586,595.5C172.587,589.834 171.294,584.128 175.497,584.12C178.943,584.112 217.973,584.031 218.572,584.168C220.196,584.537 219.562,585.158 220.033,587.499Z"/>
        </g>
        <g transform="matrix(0.949219,0,0,0.949219,-86,-86)">
            <path d="M584.052,333.501C584.052,378.092 584.334,379.076 582.478,379.368C582.126,379.424 539.131,379.462 538.534,379.346C536.397,378.929 537.397,377.82 537.023,336.5C536.983,332.119 536.041,330.344 540.499,330.284C543.861,330.239 573.842,329.838 582.533,330.331C583.995,330.414 583.457,331.076 584.052,333.501Z"/>
        </g>
    </g>
</svg>
