<?xml version="1.0" encoding="UTF-8"?>
<svg id="Layer_1" xmlns="http://www.w3.org/2000/svg" version="1.1" viewBox="0 0 24 24">
  <!-- Generator: Adobe Illustrator 29.5.1, SVG Export Plug-In . SVG Version: 2.1.0 Build 141)  -->
  <defs>
    <style>
      .st0 {
        fill: #0d0d0d;
      }
    </style>
  </defs>
  <path class="st0" d="M21.2,5.7c-3-2.2-5.8-2.2-5.8-2.2l-.3.3c3.5,1.1,5.1,2.6,5.1,2.6-2.1-1.2-4.2-1.7-6.2-2-1.5-.2-2.9,0-4.2,0h-.3c-.7,0-2.5.4-4.7,1.3-.8.3-1.2.6-1.2.6,0,0,1.7-1.6,5.4-2.7l-.2-.2s-2.8,0-5.8,2.2c0,0-3,5.3-3,11.9,0,0,1.7,3,6.3,3.1,0,0,.8-.9,1.4-1.7-2.6-.8-3.6-2.4-3.6-2.4l.6.3h0c.5.4,1,.6,1.5.8.8.3,1.8.7,3,.9,1.5.3,3.3.4,5.3,0,1-.2,2-.5,3-.9.7-.3,1.5-.7,2.4-1.2,0,0-1,1.7-3.7,2.4.6.8,1.4,1.7,1.4,1.7,4.5-.1,6.3-3.1,6.3-3.1,0-6.6-3-12-3-12l.3.2h0ZM8.4,15.8c-1.2,0-2.1-1-2.1-2.3s.9-2.3,2.1-2.3,2.1,1,2.1,2.3-.9,2.3-2.1,2.3ZM15.9,15.8c-1.2,0-2.1-1-2.1-2.3s.9-2.3,2.1-2.3,2.1,1,2.1,2.3-.9,2.3-2.1,2.3Z"/>
</svg>