<?xml version="1.0" encoding="UTF-8"?>
<svg id="Layer_1" xmlns="http://www.w3.org/2000/svg" version="1.1" viewBox="0 0 800 800">
  <!-- Generator: Adobe Illustrator 29.6.1, SVG Export Plug-In . SVG Version: 2.1.1 Build 9)  -->
  <path d="M689.3,248.2c-3.3,0-280.3-3.3-394.3-3.3h-43.4c-7.3.3-14.1,3.7-18.7,9.4-2.1,2.8-3.7,6-4.6,9.4l-83.2-3.1,1.1,15.6h-19.5c-1.5.2-2.9.6-4.3,1.2-1.7.6-3.2,1.6-4.5,2.9-2.4,2.3-3.8,5.5-3.7,8.8v1.3c.2,1.9,6.8,77.8,13.2,152.3,6.1,70.9,12.1,141.1,12.7,148,.1,5.1,1.2,10.1,3,14.9,3.6,9.4,11.4,16.6,21,19.5h.4l-.2.7c10.4,2.9,21.1,4.4,31.8,4.6,8.2,0,16.4-.9,24.4-2.7l62.8-1.1,2,1c.2,1.4.7,2.8,1.4,4.1,4.6,10.3,9.8,19.4,15.3,30.7,5.5,11.2,13.2,21.1,22.5,29.4,7.9,7.2,16.9,14,27,22.2,3.9,3,7.5,6.2,11,9.6,1.2,1.3,2.1,2.4,2.7,3.1l.4.7c.9,4.7,1.3,9.5,1.1,14.3v1.4l-10.2,49.9,27.5,6.6,3.7-57v-1.5c.3-7.2-.5-14.4-2.4-21.4h0c-5-8.9-12.1-16.5-20.7-22.2-10.8-8.9-19.9-15.6-26.3-21.5-7.3-6.5-13.3-14.3-17.5-23.1-4.9-9.6-9-17.3-12.6-24.8.2,0,.4,0,.6,0h.4c7.7-.4,14.2-.4,20-.4h26.5l-1.7,2-1.3,2.9,6.6,6.6,19-13.6c3.3-1.4,6.1-3.8,8.1-6.9,8.3-11.9,11.4-32,13.4-63.6,1.1-13.8,1.1-25.3,1.1-35,.3-13.2-.7-26.3-2.8-39.3l-3.9-40.7c.2-10.3,3.3-14.7,5.3-15.6,6.9-3.5,14.5-5.5,22.2-6h.4l9.2,42.3c.6,5.1,2,17.4,2.6,23.4,3,26.9,5.4,54.3,6.5,81l.4-.5v8.1l12.9-.6,1.5-7.7v-12.1c-1.1-27.1-2.6-43.1-5.6-70.1,0-2.2,0-4.3-.2-6.5v-2.9h0s0,0,0,0v-1.8c-.2-4.6-.8-8.3-.8-13.6s-.7-7.3-1.4-15.5c0,0-.2-11.7-.7-21.3,0-1.2,0-2.4,0-3.6-.3-4.7.6-9.3,2.5-13.6,1.6-2.9,2.4-3.9,8.1-7,3.2-.9,6.5-1.4,9.8-1.4,2.5,0,5,.3,7.5.8l6.1,37.2c0,.8,0,1.6,0,2.4l.7,4.1v.4c1.1,8.7,2.1,23.3,2.1,44.1-.2,21.7-.3,47.1-1.3,77.8v7.9l14.3.5,1-4.3,1.1-6.8v-2.4c1-31,1-50.9,1-72.6-.1-13.5-.9-27-2.3-40.4h.2s-.5-8.6-.5-8.6l-.7-4.3c.3-5.8,2.4-11.4,6.1-16.1l2-2c2.7-1.5,5.7-2.3,8.8-2.1,3.6,0,7.2.6,10.7,1.5,1.1,17.8.7,37.1,1.1,58.5-.2,22.9-.3,45.8-1.2,71.2v.4l-.3,4.3-.4,3.6h-.3s.3,0,.3,0l-2.1,18.1,13.4,1.5,4.2-18.9v-.2c-.1,0,1.2-8,1.2-8,.7-9.5,2.1-22,3.5-35.8,2.5-20.4,4-36.3,5.7-47.4,1.8-1.1,3.8-1.9,5.9-2.3,2.8-.2,5.5.3,8.1,1.2,1.1.7.7,0,1.1,2.4-.3,33.1-1.9,63.7-4.1,88.1-1.2,17.3-3,35.5-3.6,55.2h-.1s-8.6,35.6-8.6,35.6l-31.5,32.6c-5.7,5.4-10.8,11.4-15.3,17.8-.4.4-.7.8-1.1,1.3l-21.6,23.4,6.4,4.8,3.6-3.7c-.9,3.9-1.5,7.8-1.8,11.8l-.7,6.8c-.6,6.4-2.1,10-2.1,15.8l-2,50,.8-.5,27-7.1-2.7-45c-.2-.6,1.6-18,1.6-18l2.5-13.4c1.1-4.8,3.5-9.2,6.9-12.8,3.7-5.7,8-10.9,12.8-15.7,0,0,24.1-24.8,29.5-30.6,3.8-4.6,6.7-9.9,8.7-15.6l4.9-19.8,77.7-1.3c10.2-.6,19.5-5.7,25.4-14,5.8-8.6,9-18.6,9.3-28.9l18.7-313.2v-1.4c-.5-2-1.2-4-2.2-5.9-2.5-5.1-7.7-8.5-13.4-8.7ZM237.1,284.9l-22.7,285.9s0,0,0,.1c-5.6,11.4-24.8,14.3-36.1,7.1l-19-280.8h9.5l18.5,183,1.6-.4-2.8-196.9,17.7.7,4.5,151.6c.5-.3,1-.6,1.5-.8l12.5-150.1,14.9.6ZM432.2,463.4l.7,3v1.2c.1,0-.7-4.2-.7-4.2ZM659.9,593.5c-2.1,3.2-5.6,5.1-9.4,5.3l-78.1,1.4c.5-13.5,1.6-26.2,2.5-38.8l91.2-1.3-.9,15.7c0,6.3-1.9,12.4-5.2,17.8ZM666.9,545.8l-91.1,3.2c2.2-24.8,4-55.6,4-89.1v-.6c-.2-6.5-3.8-12.4-9.5-15.5-4.9-2.3-10.3-3.3-15.7-3.1h-.6c-5,.7-9.8,2.3-14.1,4.8-.2-14-.4-27-1.1-39.3v-5.3l-5-1.7c-6.7-2.5-13.7-3.8-20.9-4-6.6-.2-13,1.7-18.5,5.4l-.7.5-1.7,1.8-3.1-19.3-4.3-1.6c-5.5-2-11.3-3-17.2-3-5.1,0-10.1.8-15,2.2h-1.3c-6.7,2.8-12.3,7.8-15.7,14.2-1.1,2.3-2,4.8-2.8,7.2h-11.7c-10,.7-19.7,3.5-28.6,8.1-9.9,5.3-13.5,16.8-13.5,29.7l4.1,42.1c2,12.2,2.9,24.5,2.6,36.8,0,9.7-.3,20.5-1.1,34.1,0,.7,0,1.5,0,2.2l-148.9,5.2v5.2l148.4-2.1c-.9,11.7-2.8,23.4-5.5,34.8-.4,1.6-.9,3.1-1.6,4.7l-158.8,2.8h-1c-6.8,1.6-13.8,2.4-20.8,2.4h.6c-8.9,0-17.8-1.3-26.4-3.7-3.5-1.1-6.2-3.8-7.3-7.2-.8-2.1-1.3-4.4-1.5-6.7v-1.5c0-.2-20.7-240.9-25.2-292.2h12.2l19.8,288.3v.7h-.7c2.9,8,10.7,13.2,19.3,12.6h5.7c5.4-.5,10.6-1.9,15.6-4.2,5-2.5,9.5-5.9,13.4-9.9l1.4-1.3,25.2-312.4c.3-1,.6-1.9.9-2.9,0-.2,0-.5,0-.7,1.6-1.7.7-1.7,3-1.7h42.6c104.7,0,349.6,2.9,388.7,3.3l-16.6,276.7Z"/>
  <polygon points="482.3 569.7 482.3 569.4 482.3 569.4 482.3 569.7"/>
  <path d="M122.8,200.8c1.7,1.1,3.8,1.8,5.9,1.8,5.8,0,10.6-4.6,10.7-10.5,0-3.6-1.8-7-4.8-9l.5-.6-12.1-8.1c-4.3-4.9-10.2-11-17.8-18.5-2.9-2.7-5.5-5-8.1-6.9-1.9-3-4.2-5.7-6.8-8.1-4.2-5.5-9.9-9.7-16.3-12.2h-.4c-1.6-.3-3.1-.5-4.7-.6-5.1,0-9.9,2.2-13.4,5.9-5.4,4.7-8.4,11.5-8.1,18.7,0,7.7,3.9,14.8,10.3,19.1,4.9,4.7,11.4,7.4,18.2,7.5h1.5c4.8,4.3,10.8,6.8,17.2,7.1,7,5.9,15.4,10,24.4,11.9l4,2.7Z"/>
  <path d="M250.9,67.4c12,24.4,20.2,36.7,25.2,36.7,1.7,0,3.4-.4,4.9-1.1.7-.1,1.3-.4,2-.7,4.1-1.8,6.6-6,6.2-10.5,1-3,1.5-6.1,1.5-9.2-1.2-8.5-5-16.5-10.8-22.8-3.9-4.5-7.3-9.4-10.2-14.6,0-15.1-5.6-25.2-18.3-29.7-4-2-8.8-1.8-12.6.7-4,2.6-6.2,7.3-5.7,12.1,4.3,13.7,10.3,26.9,17.8,39.2Z"/>
  <path d="M509.5,100.5c0,0,.1,0,.2,0,.8,0,1.6,0,2.4,0,4.9,0,9.2-3.4,10.3-8.1l6.3-27.3c.5-1.8.9-3.7,1.3-5.7l5.7-24.9c1-1.6,1.7-3.4,1.9-5.2,4.4,0,2.4-4.3,4.9-9.4,1.4-2.3,2.1-4.9,2-7.6,0-10.6-5.7-14.4-17.1-11.2-11.6,2.3-19.9,12.6-19.6,24.4,0,4.4-1.2,11.4-1.9,21.5-1.2,6.9-2,13.9-2.5,20.9.8,2.2,1.4,4.4,1.6,6.7l-3.3,13.3c-1.3,5.7,2.3,11.4,8,12.7Z"/>
  <path d="M707.3,145.9l-17.8,17.2-10.2,6.8c-2.5,1.7-4.2,4.5-4.6,7.5l-13.5,13.4c0,.7.3,1.3.7,1.9,1.2.7,2.5,1.9,5,3.2l14.3-7.3c1.3.5,2.6.8,4,.8,2.1,0,4.2-.6,5.9-1.8l48.9-32.6c.6-.4,1.2-.9,1.7-1.5,7.3-5.9,11.1-10.3,11.1-13.3,0-21.7-15.2-19.8-45.5,5.7Z"/>
</svg>