<?xml version="1.0" encoding="UTF-8"?>
<svg id="Layer_1" xmlns="http://www.w3.org/2000/svg" version="1.1" viewBox="0 0 800 800">
  <!-- Generator: Adobe Illustrator 29.6.1, SVG Export Plug-In . SVG Version: 2.1.1 Build 9)  -->
  <path d="M104.3,44.5C69.4,65.3.7,144.3,0,165v34.3C0,242.7,40.6,280.9,77.5,280.9s81.2-36.7,81.2-80.3c0,43.6,35.6,80.3,79.9,80.3s78.8-36.7,78.8-80.3c0,43.6,37.9,80.3,82.2,80.3h.8c44.3,0,82.2-36.7,82.2-80.3,0,43.6,34.5,80.3,78.8,80.3s79.9-36.7,79.9-80.3c0,43.6,36.9,80.3,81.2,80.3s77.5-38.2,77.5-81.7v-34.3c-.7-20.7-69.4-99.7-104.3-120.4-108.4-3.8-183.7-4.5-295.7-4.5-112,0-264.8,1.8-295.7,4.5h0ZM316.9,260.5c-4.2,7.4-9.5,14.1-15.6,20.1-17.3,17-40.6,26.5-64.9,26.5-25.3,0-48.3-10.1-65-26.5-6-5.9-10.6-12.3-14.9-19.7h0c-4.2,7.4-10.1,13.8-16.1,19.7-17.4,17-40.7,26.5-65,26.5-3,0-6.2-.8-8.8-1.7-3.5,37.1-5.1,72.5-5.6,98.4h0c0,13.3-.1,24.1-.2,39,.7,77.8-7.7,252.2,34.3,295,65.1,15.2,184.9,22.1,305,22.1h0c120.2,0,240-6.9,305-22.1,42-42.8,33.6-217.2,34.3-295,0-15-.1-25.8-.2-38.9h0c-.5-26-2-61.4-5.6-98.5-2.6.9-5.7,1.7-8.8,1.7-24.3,0-47.7-9.5-65-26.5-6.1-6-11.9-12.3-16.1-19.7h0c-4.2,7.4-8.8,13.7-14.9,19.6-16.7,16.4-39.8,26.5-65,26.5s-48.2-10.1-64.9-26.5c-6.1-5.9-11.3-12.7-15.6-20.1-4.2,7.4-9.4,14.1-15.4,20.1-17.4,17-40.7,26.5-65.1,26.5-.9,0-1.8,0-2.6,0h0c-.9,0-1.8,0-2.6,0-25.3,0-48.3-10.1-65-26.5-6.1-5.9-11.3-12.7-15.4-20.1h0ZM250.1,346.8h0s0,0,0,0c26.4,0,50,0,79.1,31.8,22.9-2.4,46.9-3.6,70.8-3.6h0c24,0,47.9,1.2,70.8,3.6,29.1-31.8,52.6-31.7,79.1-31.8h0c12.5,0,62.5,0,97.3,97.8l37.4,134.2c27.7,99.9-8.9,102.3-54.5,102.4-67.7-2.5-105.2-51.7-105.2-100.9-37.5,6.2-81.2,9.2-125,9.2h0c-43.7,0-87.5-3.1-124.9-9.2,0,49.2-37.5,98.3-105.2,100.9-45.7,0-82.3-2.5-54.5-102.4l37.4-134.2c34.8-97.8,84.8-97.8,97.3-97.8h0ZM400,423.7h0c0,0-71.3,65.5-84.1,88.8l46.6-1.9v40.7c0,1.9,18.7,1.1,37.4.3h0c18.7.9,37.4,1.6,37.4-.3v-40.7l46.6,1.9c-12.8-23.3-84.1-88.7-84.1-88.7h0s0,0,0,0h0Z"/>
</svg>