<?xml version="1.0" encoding="UTF-8"?>
<svg id="Layer_1" xmlns="http://www.w3.org/2000/svg" version="1.1" viewBox="0 0 241 194">
  <!-- Generator: Adobe Illustrator 29.5.1, SVG Export Plug-In . SVG Version: 2.1.0 Build 141)  -->
  <defs>
    <style>
      .st0 {
        fill: #0d0d0d;
      }
    </style>
  </defs>
  <path class="st0" d="M174.6,18c-13.6-1.3-23.2-1.8-60-1.8s-43.7.3-59.8,2.3c-21.4,2.7-39.6,19.1-39.6,49.3s1.6,53.6,13.9,74.3c13.9,23.6,37.1,36.6,67.1,36.6h7.3c36.8,0,56.8-19.5,66.8-35,4.3-6.9,7.5-13.7,9.5-20.5,26.2-2.2,45.5-23.8,45.5-50.2v-3.6c0-28.4-18.6-48.2-50.7-51.4ZM130.9,116.4c-6.2,6.1-16.2,12.5-23,16.6-1.8,1.1-4.5,1.8-6.8,1.8s-4.4-.7-6.4-1.8c-6.8-4.1-16.8-10.5-23.2-16.6-9.5-9.1-17-20.7-17-34.1s10.5-27.5,26.4-27.5,15.9,4.8,20.2,11.4c4.8-6.6,4.8-11.4,20.5-11.4s26.6,14.1,26.6,27.5-7.5,25-17.3,34.1ZM171.9,88.5c-3.7,0-5.7-2.1-5.7-4.8v-25.6c0-2.8-5.9-4.8,5.7-4.8s18,6.8,18,17.7-6.4,17.5-18,17.5Z"/>
</svg>