<?xml version="1.0" encoding="UTF-8"?>
<svg id="Layer_1" xmlns="http://www.w3.org/2000/svg" version="1.1" viewBox="0 0 800 800">
  <!-- Generator: Adobe Illustrator 29.6.1, SVG Export Plug-In . SVG Version: 2.1.1 Build 9)  -->
  <path d="M725,343L140.1,8.6C130,2.9,118.8,0,107.6,0s-.5,0-.7,0c-1.5,0-3,0-4.5.2-.7,0-1.4.1-2,.2-1.2.1-2.3.3-3.5.5-.4,0-.8,0-1.3.2h0c-7.3,1.4-14.4,3.9-21,7.8-20.2,11.7-32.7,33.4-32.7,56.8v668.7c0,23.4,12.5,45,32.7,56.8,6.6,3.8,13.7,6.4,21,7.8h0c.4,0,.8.1,1.1.2,1.3.2,2.5.4,3.8.5.6,0,1.3.1,1.9.2,1.5.1,3,.2,4.4.2.3,0,.5,0,.8,0,11.2,0,22.5-2.9,32.5-8.6l584.9-334.3c20.4-11.7,33.1-33.4,33.1-57h0c0-23.6-12.6-45.4-33.1-57.1ZM493.7,276.6l-58.2,76.3-148-194.1,206.1,117.8ZM696.7,407.4l-409.1,233.8,256.1-336,152.9,87.4c2.6,1.5,4.3,4.3,4.3,7.4,0,3-1.6,5.9-4.3,7.4Z"/>
</svg>