<?xml version="1.0" encoding="UTF-8"?>
<svg id="Layer_1" xmlns="http://www.w3.org/2000/svg" version="1.1" viewBox="0 0 800 800">
  <!-- Generator: Adobe Illustrator 29.6.1, SVG Export Plug-In . SVG Version: 2.1.1 Build 9)  -->
  <path d="M799.8,636.8l-232.7-134.7c-14,33.3,10.8,78.6-16.3,106h-126.5l142.1-188.4c108.6-149.2,84.1-333.5-107.7-388.6C334-4.7,160.7,46.1,104.6,170.2c-91.2,201.5,198,232.3,180.5,59.4-5.4-53-35.3-61.6-72.8-90.6,65.9-77.2,192.5-40,169.4,71.6-16.1,77.9-275.2,342.6-343.7,419.2-10.9,12.2-34.5,19-38,43.6h550.9c23.7,22.6,8.1,63.6,12.2,94,1.5,11.3-4.5,14.1,12.1,12,62.9-48.9,140-77.2,205.8-120.7,8.6-5.7,20.9-8.5,18.9-21.9ZM219.1,238.9c5.7,40.4-53.5,40.4-63,25.5-26.1-41.1,54.1-89.1,63-25.5ZM322.3,608.2h-167.3c-3.6-14.2,5.9-16.3,12.2-24.5,72-94.1,269.5-255.2,281.6-371.1,5-48.1-4.3-83.7-32.6-122.5,65.1-9.5,133.9,51.7,144.9,116.2,16.4,96-44,169.2-97.3,241.5-40.6,55-92.1,114.6-141.5,160.5ZM620.2,673.4v-65.2s65.2,24.5,65.2,24.5c5.2,6.8-47.4,50.8-65.2,40.7Z"/>
</svg>