<?xml version="1.0" encoding="UTF-8"?>
<svg id="Layer_1" xmlns="http://www.w3.org/2000/svg" version="1.1" viewBox="0 0 800 800">
  <!-- Generator: Adobe Illustrator 29.6.1, SVG Export Plug-In . SVG Version: 2.1.1 Build 9)  -->
  <path d="M795.6,144.8c-2.9-17.7-8.8-34-16.2-50.2-7.4-16.2-17.7-29.6-31.1-42.9-13.3-11.8-28.1-22.2-42.9-31.1-16.2-8.8-32.6-13.3-50.2-16.2-17.7-2.9-35.5-4.4-53.2-4.4H198c-17.7,0-35.5,1.5-53.2,4.4-17.7,2.9-34,8.8-50.2,16.2-16.2,7.4-29.6,17.7-42.9,31.1-11.8,11.8-22.2,26.7-31.1,42.9-8.8,16.2-13.3,32.6-16.2,50.2-2.9,17.7-4.4,35.5-4.4,53.2v404c0,17.7,1.5,35.5,4.4,53.2,2.9,17.7,8.8,34,16.2,50.2,7.4,16.2,17.7,29.6,31.1,42.9,11.8,11.8,26.7,23.7,42.9,31.1,16.2,8.8,32.6,13.3,50.2,16.2,17.7,2.9,35.5,4.4,53.2,4.4h403.8c17.7,0,35.5-1.5,53.2-4.4,17.7-2.9,34-8.8,50.2-16.2,16.2-7.4,29.6-17.7,42.9-31.1,11.8-11.8,22.2-26.7,31.1-42.9,8.8-16.2,13.3-32.6,16.2-50.2,2.9-17.7,4.4-35.5,4.4-53.2V249.9h.1v-51.8c0-17.7-1.5-35.5-4.4-53.2ZM390.3,632.9c0,13.3,0-32.6-45.8-66.6-47.3-37-128.8-39.9-195.2,8.8-11.8,8.8-20.8,7.4-20.8-5.9V254.2c0-13.3,1.5-28.1,20.8-42.9,66.3-45.8,168.4-47.3,220.3,13.4,13.3,20.8,20.8,26.7,20.8,84.3v324ZM671.1,569.3c0,13.3-9,14.7-20.8,5.9-66.5-48.8-147.9-45.8-195.2-8.8-45.8,34-45.8,79.9-45.8,66.6v-324c0-57.6,7.5-63.5,20.8-84.3,51.7-60.6,153.8-60.6,220.4-11.8,19.3,14.7,20.8,29.6,20.8,42.9,0,72.5,0,242.6-.1,313.5Z"/>
</svg>