<?xml version="1.0" encoding="UTF-8"?>
<svg id="Layer_1" xmlns="http://www.w3.org/2000/svg" version="1.1" viewBox="0 0 24 24">
  <!-- Generator: Adobe Illustrator 29.5.1, SVG Export Plug-In . SVG Version: 2.1.0 Build 141)  -->
  <defs>
    <style>
      .st0 {
        fill: #0d0d0d;
      }
    </style>
  </defs>
  <g id="LOGOS">
    <path class="st0" d="M19.1,4.7c-1.6-1-2.5-2.8-2.5-4.7h-4v16c0,1.9-1.6,3.3-3.5,3.2-1.9,0-3.3-1.6-3.2-3.5,0-1.8,1.6-3.2,3.4-3.2s.7,0,1,.2v-4.1h-1c-4.1,0-7.4,3.3-7.4,7.4s3.3,7.4,7.4,7.4,7.4-3.3,7.4-7.4V7.8c1.6,1.2,3.6,1.8,5.6,1.8v-4c-1.1,0-2.1-.3-3-.9h-.2Z"/>
  </g>
</svg>